<svg version="1.1" id="Layer_1" xmlns="http://www.w3.org/2000/svg" xmlns:xlink="http://www.w3.org/1999/xlink" x="0px" y="0px"
	 width="100%" viewBox="0 0 512 512" enable-background="new 0 0 512 512" xml:space="preserve">
<path fill="#424158" opacity="1.000000" stroke="none" 
	d="
M1.000000,176.000000 
	C1.000000,117.333336 1.000000,59.166668 1.000000,1.000000 
	C171.666672,1.000000 342.333344,1.000000 513.000000,1.000000 
	C513.000000,171.666672 513.000000,342.333344 513.000000,513.000000 
	C342.333344,513.000000 171.666672,513.000000 1.000000,513.000000 
	C1.000000,400.833344 1.000000,288.666656 1.000000,176.000000 
M339.500000,1.999571 
	C229.349197,1.999583 119.198410,1.999082 9.047612,2.000805 
	C2.007614,2.000915 2.000677,2.008933 2.000620,9.147835 
	C1.999288,174.291077 1.999383,339.434326 2.000262,504.577576 
	C2.000301,511.993958 2.004885,511.999176 9.272975,511.999237 
	C174.416229,512.000244 339.559479,512.000244 504.702728,511.999268 
	C511.994934,511.999237 511.999298,511.994202 511.999329,504.601898 
	C512.000183,339.458649 512.000244,174.315399 511.999054,9.172147 
	C511.998993,2.009253 511.992737,2.001184 504.976685,2.000887 
	C450.151123,1.998562 395.325562,1.999582 339.500000,1.999571 
z"/>
<path fill="#212C64" opacity="1.000000" stroke="none" 
	d="
M340.000000,1.999571 
	C395.325562,1.999582 450.151123,1.998562 504.976685,2.000887 
	C511.992737,2.001184 511.998993,2.009253 511.999054,9.172147 
	C512.000244,174.315399 512.000183,339.458649 511.999329,504.601898 
	C511.999298,511.994202 511.994934,511.999237 504.702728,511.999268 
	C339.559479,512.000244 174.416229,512.000244 9.272975,511.999237 
	C2.004885,511.999176 2.000301,511.993958 2.000262,504.577576 
	C1.999383,339.434326 1.999288,174.291077 2.000620,9.147835 
	C2.000677,2.008933 2.007614,2.000915 9.047612,2.000805 
	C119.198410,1.999082 229.349197,1.999583 340.000000,1.999571 
M376.324036,371.835571 
	C405.218475,336.673523 424.383484,296.714508 435.076050,252.587936 
	C443.230469,218.935867 446.374603,184.656433 446.588776,150.166489 
	C446.765411,121.716309 445.597534,93.258125 445.059967,64.802834 
	C444.967224,59.893581 445.046844,54.981079 445.046844,49.992840 
	C442.578033,49.992840 440.913208,49.993328 439.248383,49.992771 
	C326.951965,49.955196 214.654526,50.131138 102.360550,49.589237 
	C89.418465,49.526779 78.930176,51.350639 71.778526,62.758717 
	C70.549156,64.719772 69.142929,67.037537 69.111359,69.209328 
	C68.806297,90.196548 68.543983,111.189758 68.719627,132.177490 
	C69.068642,173.882477 72.876564,215.218414 82.956024,255.816910 
	C106.553970,350.865814 162.263626,419.722900 250.977554,461.562897 
	C252.877777,462.459106 255.921951,462.541168 257.792175,461.653656 
	C303.301392,440.057434 343.561310,411.459137 376.324036,371.835571 
z"/>
<path fill="#FCFCFD" opacity="1.000000" stroke="none" 
	d="
M376.108398,372.118195 
	C343.561310,411.459137 303.301392,440.057434 257.792175,461.653656 
	C255.921951,462.541168 252.877777,462.459106 250.977554,461.562897 
	C162.263626,419.722900 106.553970,350.865814 82.956024,255.816910 
	C72.876564,215.218414 69.068642,173.882477 68.719627,132.177490 
	C68.543983,111.189758 68.806297,90.196548 69.111359,69.209328 
	C69.142929,67.037537 70.549156,64.719772 71.778526,62.758717 
	C78.930176,51.350639 89.418465,49.526779 102.360550,49.589237 
	C214.654526,50.131138 326.951965,49.955196 439.248383,49.992771 
	C440.913208,49.993328 442.578033,49.992840 445.046844,49.992840 
	C445.046844,54.981079 444.967224,59.893581 445.059967,64.802834 
	C445.597534,93.258125 446.765411,121.716309 446.588776,150.166489 
	C446.374603,184.656433 443.230469,218.935867 435.076050,252.587936 
	C424.383484,296.714508 405.218475,336.673523 376.108398,372.118195 
M120.902245,324.613403 
	C149.896301,381.871704 195.105179,421.986664 252.628677,449.012970 
	C254.151413,449.728424 256.599915,449.717316 258.126190,449.000519 
	C303.557983,427.664429 342.166260,397.931976 371.201508,356.532196 
	C406.982819,305.513550 422.075531,247.588470 426.683502,186.525085 
	C428.685486,159.995575 428.409882,133.287979 428.947083,106.656792 
	C429.217987,93.226074 428.994354,79.785385 428.994354,65.842484 
	C313.607880,65.842484 199.061768,65.842484 83.329681,65.842484 
	C83.329681,78.314522 83.471466,90.606712 83.303085,102.894638 
	C82.798645,139.706009 83.125603,176.465729 87.981720,213.057266 
	C93.112991,251.722061 102.815720,289.009125 120.902245,324.613403 
z"/>
<path fill="#222D65" opacity="1.000000" stroke="none" 
	d="
M120.723862,324.285400 
	C102.815720,289.009125 93.112991,251.722061 87.981720,213.057266 
	C83.125603,176.465729 82.798645,139.706009 83.303085,102.894638 
	C83.471466,90.606712 83.329681,78.314522 83.329681,65.842484 
	C199.061768,65.842484 313.607880,65.842484 428.994354,65.842484 
	C428.994354,79.785385 429.217987,93.226074 428.947083,106.656792 
	C428.409882,133.287979 428.685486,159.995575 426.683502,186.525085 
	C422.075531,247.588470 406.982819,305.513550 371.201508,356.532196 
	C342.166260,397.931976 303.557983,427.664429 258.126190,449.000519 
	C256.599915,449.717316 254.151413,449.728424 252.628677,449.012970 
	C195.105179,421.986664 149.896301,381.871704 120.723862,324.285400 
M233.063339,220.425537 
	C237.043427,224.209183 241.101746,227.914291 244.991180,231.788956 
	C275.074524,261.758362 305.123383,291.762360 335.188263,321.750305 
	C339.240173,325.791870 339.510040,325.755249 343.069397,320.857971 
	C342.392731,320.024261 341.687225,319.127441 340.953247,318.254578 
	C300.784546,270.485840 260.644592,222.692856 220.420746,174.970581 
	C210.345917,163.017639 203.878159,149.310959 200.191666,134.276764 
	C198.452942,127.185905 197.509308,119.900101 196.125748,112.262886 
	C182.352997,135.377365 163.114151,152.055450 138.362961,164.515747 
	C141.328964,164.784729 142.638107,165.006256 143.947250,165.006287 
	C157.345963,165.006607 169.179016,169.389572 180.430832,176.611618 
	C199.627213,188.932922 215.845932,204.696915 233.063339,220.425537 
M321.520508,118.174622 
	C320.997406,120.256676 320.474274,122.338730 319.962585,124.375389 
	C314.528656,125.526039 313.359558,127.511459 316.285797,132.777542 
	C324.273804,147.152634 335.958893,157.795807 350.796143,164.817810 
	C352.763397,165.748840 355.947968,165.883987 357.701019,164.877014 
	C358.902130,164.187119 358.598419,160.877457 359.031982,158.364731 
	C373.837280,153.264023 379.090363,143.996643 373.818298,131.211761 
	C372.489807,132.204926 371.161316,133.198090 369.063232,134.766586 
	C369.307190,125.420998 368.577545,117.228561 364.473938,109.044495 
	C362.536621,111.246552 361.179291,112.789391 359.100586,115.152153 
	C356.798676,105.496658 354.715637,96.759293 352.496674,87.451622 
	C343.786560,92.095589 338.348663,99.507889 335.450012,109.609612 
	C334.597534,108.291107 334.027649,107.409676 333.408661,106.452278 
	C327.875610,108.448532 323.985657,112.038673 321.520508,118.174622 
M131.939789,145.492676 
	C131.678604,145.918289 131.368454,146.321701 131.163925,146.772995 
	C129.443176,150.569916 125.563972,154.625153 129.434158,158.543793 
	C133.228378,162.385544 137.582443,159.068436 141.340118,157.188858 
	C158.811966,148.449356 172.470001,135.146835 184.655060,120.224144 
	C187.674393,116.526482 190.302216,112.361504 192.298248,108.036690 
	C193.334320,105.791809 192.596786,102.728348 192.660477,100.034683 
	C190.005310,100.001198 187.234283,99.476486 184.726486,100.067902 
	C182.044174,100.700485 179.510040,102.214828 177.083481,103.637985 
	C159.184677,114.135452 143.968414,127.570045 131.939789,145.492676 
M286.528320,194.024399 
	C297.560913,184.512680 308.593536,175.000961 318.691132,166.295364 
	C311.763489,157.262329 304.885559,148.294128 298.331390,139.748077 
	C298.092682,142.715134 298.138214,146.976913 297.349823,151.078384 
	C294.535950,165.717239 286.597748,177.776459 277.305878,188.999527 
	C270.732239,196.939377 263.778625,204.564590 256.873199,212.469269 
	C258.599915,214.538544 260.246307,216.511566 261.725006,218.283600 
	C270.105286,210.089920 278.066559,202.305954 286.528320,194.024399 
M206.970901,267.458252 
	C201.248917,273.671875 195.526917,279.885468 189.641815,286.276184 
	C190.834305,287.571381 191.801880,288.622284 193.037079,289.963867 
	C210.284363,272.246674 227.288574,254.779175 244.612579,236.983154 
	C242.658768,235.173767 241.034790,233.669815 239.235733,232.003723 
	C228.478546,243.842422 217.976715,255.400101 206.970901,267.458252 
M334.120148,177.868790 
	C326.477966,181.417191 318.040039,183.872864 311.357574,188.739212 
	C296.999878,199.194901 283.563232,210.913269 269.708801,222.064163 
	C267.135895,224.134995 267.361359,225.645325 270.100616,227.087784 
	C270.536102,226.816101 270.844879,226.675110 271.090271,226.461365 
	C272.093353,225.587540 273.068756,224.682022 274.069061,223.804947 
	C295.732147,204.810287 316.772888,184.738327 347.575165,180.974976 
	C343.342407,179.882599 339.109619,178.790207 334.120148,177.868790 
M352.350891,178.924850 
	C357.569702,177.581909 357.699829,174.237427 354.015442,170.385117 
	C349.802216,170.621170 346.253723,171.930252 343.960693,170.766235 
	C330.231567,163.796936 318.666687,154.126190 310.847748,140.651245 
	C309.436981,138.220032 309.776093,134.773438 309.307343,131.795639 
	C309.766846,131.346542 310.226318,130.897446 310.685822,130.448349 
	C308.064941,130.281448 305.444092,130.114548 302.823181,129.947662 
	C302.982666,132.569656 303.094238,135.196075 303.336884,137.810349 
	C303.394135,138.427170 303.843445,139.033859 304.194977,139.593307 
	C315.678040,157.868256 330.485291,172.129059 352.350891,178.924850 
M149.866180,330.633820 
	C147.805969,332.977936 149.088806,334.951569 151.144943,335.840546 
	C152.314682,336.346313 154.533508,335.628845 155.690720,334.715607 
	C158.284409,332.668793 160.611053,330.249115 162.867004,327.814972 
	C170.859390,319.191345 178.776413,310.497833 186.721985,301.830811 
	C187.165848,302.189545 187.609711,302.548309 188.053574,302.907043 
	C185.902344,300.941620 183.751099,298.976196 181.476318,296.897919 
	C171.015854,308.043884 160.679153,319.057953 149.866180,330.633820 
M235.052414,260.546234 
	C240.408112,254.707626 245.763809,248.869019 251.672272,242.427795 
	C250.298294,242.617630 248.515686,242.309616 247.731293,243.053772 
	C230.486313,259.414185 213.352020,275.891235 196.196548,292.345978 
	C196.376984,292.881744 196.557404,293.417480 196.737823,293.953247 
	C198.268524,293.555054 200.246063,293.634735 201.261383,292.685394 
	C212.442383,282.230621 223.473679,271.615784 235.052414,260.546234 
M195.416718,302.995789 
	C196.995819,302.010742 198.574921,301.025726 199.854355,300.227631 
	C194.446503,295.283112 189.406067,290.674500 184.433121,286.127625 
	C179.720764,288.494415 180.673920,291.788025 183.783585,294.614807 
	C187.145554,297.670990 191.020721,300.162628 195.416718,302.995789 
M345.318237,332.784485 
	C344.514771,333.682587 343.711334,334.580658 342.907867,335.478729 
	C344.092163,336.078308 345.816071,337.501221 346.369598,337.138458 
	C349.126862,335.331390 351.990936,333.384827 354.012329,330.846313 
	C355.869659,328.513763 355.068665,326.183197 352.196930,325.825195 
	C349.910126,328.227203 347.915161,330.322662 345.318237,332.784485 
M340.962311,327.275238 
	C340.873413,328.323120 340.784515,329.371033 340.695587,330.418945 
	C342.807373,329.414673 345.275299,328.788971 346.896790,327.263550 
	C347.862854,326.354706 347.499237,324.032471 347.733917,322.341736 
	C345.244446,324.219635 343.420105,325.595825 340.962311,327.275238 
z"/>
<path fill="#F6F6F9" opacity="1.000000" stroke="none" 
	d="
M232.784912,220.207489 
	C215.845932,204.696915 199.627213,188.932922 180.430832,176.611618 
	C169.179016,169.389572 157.345963,165.006607 143.947250,165.006287 
	C142.638107,165.006256 141.328964,164.784729 138.362961,164.515747 
	C163.114151,152.055450 182.352997,135.377365 196.125748,112.262886 
	C197.509308,119.900101 198.452942,127.185905 200.191666,134.276764 
	C203.878159,149.310959 210.345917,163.017639 220.420746,174.970581 
	C260.644592,222.692856 300.784546,270.485840 340.953247,318.254578 
	C341.687225,319.127441 342.392731,320.024261 343.069397,320.857971 
	C339.510040,325.755249 339.240173,325.791870 335.188263,321.750305 
	C305.123383,291.762360 275.074524,261.758362 244.991180,231.788956 
	C241.101746,227.914291 237.043427,224.209183 232.784912,220.207489 
M330.959656,313.680084 
	C331.241211,313.851929 331.522736,314.023773 331.980499,314.758362 
	C332.858948,315.594086 333.737396,316.429779 334.615845,317.265503 
	C334.792389,317.112335 334.968933,316.959198 335.145477,316.806030 
	C334.277924,315.661835 333.410339,314.517639 332.288452,313.028992 
	C332.099121,312.812012 331.882904,312.626373 331.414093,312.106964 
	C331.225983,311.890961 331.022827,311.690216 330.470032,310.993347 
	C330.000580,310.618835 329.531158,310.244324 328.619690,309.083313 
	C328.210907,309.099243 327.802094,309.115173 327.393311,309.131134 
	C327.900574,309.848816 328.407837,310.566498 329.014374,311.738983 
	C329.199097,312.017090 329.457458,312.174011 329.960480,312.686554 
	C330.241699,312.856171 330.522888,313.025787 330.959656,313.680084 
M258.228119,239.271347 
	C278.056946,259.621155 297.885742,279.970947 317.714569,300.320770 
	C318.197235,299.914001 318.679932,299.507233 319.162598,299.100464 
	C318.256378,297.883362 317.436279,296.589386 316.429626,295.461945 
	C310.888855,289.256165 305.376862,283.022125 299.719391,276.923584 
	C268.489014,243.258377 237.352386,209.504395 205.877197,176.069290 
	C197.119675,166.766434 187.686203,157.950653 175.052338,153.766739 
	C169.182663,151.822906 160.989456,155.219940 157.886948,161.217957 
	C158.604523,161.561691 159.280426,162.025787 160.026764,162.222198 
	C174.196060,165.951202 186.388397,173.559128 197.116516,183.050690 
	C217.667282,201.232758 237.577606,220.138718 258.228119,239.271347 
M324.684082,307.151276 
	C325.078857,307.159790 325.473663,307.168274 325.868439,307.176758 
	C325.679718,306.661377 325.490967,306.145966 325.302246,305.630585 
	C324.868561,305.856232 324.434875,306.081909 324.684082,307.151276 
z"/>
<path fill="#F6F5F8" opacity="1.000000" stroke="none" 
	d="
M321.670715,117.817764 
	C323.985657,112.038673 327.875610,108.448532 333.408661,106.452278 
	C334.027649,107.409676 334.597534,108.291107 335.450012,109.609612 
	C338.348663,99.507889 343.786560,92.095589 352.496674,87.451622 
	C354.715637,96.759293 356.798676,105.496658 359.100586,115.152153 
	C361.179291,112.789391 362.536621,111.246552 364.473938,109.044495 
	C368.577545,117.228561 369.307190,125.420998 369.063232,134.766586 
	C371.161316,133.198090 372.489807,132.204926 373.822144,131.217224 
	C379.090363,143.996643 373.837280,153.264023 359.031982,158.364731 
	C358.598419,160.877457 358.902130,164.187119 357.701019,164.877014 
	C355.947968,165.883987 352.763397,165.748840 350.796143,164.817810 
	C335.958893,157.795807 324.273804,147.152634 316.285797,132.777542 
	C313.359558,127.511459 314.528656,125.526039 319.962585,124.375389 
	C320.474274,122.338730 320.997406,120.256676 321.670715,117.817764 
M336.044617,143.293900 
	C340.473175,139.834259 345.312836,136.773163 349.187134,132.776260 
	C351.812164,130.068161 354.841583,125.924934 354.617279,122.632980 
	C354.003723,113.630592 351.763885,104.739037 350.168091,95.803589 
	C349.551849,95.834663 348.935608,95.865738 348.319397,95.896805 
	C340.309723,105.063332 332.488617,114.225777 338.615173,128.020996 
	C339.971802,131.075699 338.731079,133.628693 335.855743,134.904633 
	C334.092163,127.125961 332.381439,119.580597 330.711548,112.215141 
	C324.359467,116.103256 321.554810,122.406357 324.875061,129.516571 
	C327.328217,134.769974 331.449860,139.244263 335.062256,144.709122 
	C336.709625,146.101761 338.281067,147.598221 340.018005,148.868362 
	C346.242737,153.420181 352.963135,155.490692 360.606384,152.796783 
	C366.561096,150.698029 369.894562,146.450546 369.784576,140.939743 
	C355.820801,149.355606 355.792206,149.364227 351.641266,146.412262 
	C364.037628,144.578232 369.104980,134.160431 361.930511,116.830124 
	C359.076630,131.868835 350.742828,141.092697 336.044617,143.293900 
z"/>
<path fill="#F9F9FA" opacity="1.000000" stroke="none" 
	d="
M132.126678,145.176468 
	C143.968414,127.570045 159.184677,114.135452 177.083481,103.637985 
	C179.510040,102.214828 182.044174,100.700485 184.726486,100.067902 
	C187.234283,99.476486 190.005310,100.001198 192.660477,100.034683 
	C192.596786,102.728348 193.334320,105.791809 192.298248,108.036690 
	C190.302216,112.361504 187.674393,116.526482 184.655060,120.224144 
	C172.470001,135.146835 158.811966,148.449356 141.340118,157.188858 
	C137.582443,159.068436 133.228378,162.385544 129.434158,158.543793 
	C125.563972,154.625153 129.443176,150.569916 131.163925,146.772995 
	C131.368454,146.321701 131.678604,145.918289 132.126678,145.176468 
M165.447708,116.063484 
	C160.796066,122.307411 167.744522,128.533478 165.388443,135.122086 
	C167.867950,133.472931 169.613876,131.509079 171.233780,129.446259 
	C176.539932,122.689171 181.887436,115.960381 186.984116,109.047501 
	C187.748322,108.010979 187.255234,106.047455 187.343765,104.512756 
	C185.960632,104.655251 184.334915,104.376740 183.234894,105.010590 
	C177.386414,108.380562 171.669724,111.979248 165.447708,116.063484 
z"/>
<path fill="#FAFAFC" opacity="1.000000" stroke="none" 
	d="
M286.278076,194.273193 
	C278.066559,202.305954 270.105286,210.089920 261.725006,218.283600 
	C260.246307,216.511566 258.599915,214.538544 256.873199,212.469269 
	C263.778625,204.564590 270.732239,196.939377 277.305878,188.999527 
	C286.597748,177.776459 294.535950,165.717239 297.349823,151.078384 
	C298.138214,146.976913 298.092682,142.715134 298.331390,139.748077 
	C304.885559,148.294128 311.763489,157.262329 318.691132,166.295364 
	C308.593536,175.000961 297.560913,184.512680 286.278076,194.273193 
z"/>
<path fill="#F5F5F8" opacity="1.000000" stroke="none" 
	d="
M207.222900,267.208008 
	C217.976715,255.400101 228.478546,243.842422 239.235733,232.003723 
	C241.034790,233.669815 242.658768,235.173767 244.612579,236.983154 
	C227.288574,254.779175 210.284363,272.246674 193.037079,289.963867 
	C191.801880,288.622284 190.834305,287.571381 189.641815,286.276184 
	C195.526917,279.885468 201.248917,273.671875 207.222900,267.208008 
z"/>
<path fill="#F4F3F7" opacity="1.000000" stroke="none" 
	d="
M334.498474,177.783310 
	C339.109619,178.790207 343.342407,179.882599 347.575165,180.974976 
	C316.772888,184.738327 295.732147,204.810287 274.069061,223.804947 
	C273.068756,224.682022 272.093353,225.587540 271.090271,226.461365 
	C270.844879,226.675110 270.536102,226.816101 270.100616,227.087784 
	C267.361359,225.645325 267.135895,224.134995 269.708801,222.064163 
	C283.563232,210.913269 296.999878,199.194901 311.357574,188.739212 
	C318.040039,183.872864 326.477966,181.417191 334.498474,177.783310 
z"/>
<path fill="#F3F3F6" opacity="1.000000" stroke="none" 
	d="
M351.965088,178.855560 
	C330.485291,172.129059 315.678040,157.868256 304.194977,139.593307 
	C303.843445,139.033859 303.394135,138.427170 303.336884,137.810349 
	C303.094238,135.196075 302.982666,132.569656 302.823181,129.947662 
	C305.444092,130.114548 308.064941,130.281448 310.685822,130.448349 
	C310.226318,130.897446 309.766846,131.346542 309.307343,131.795639 
	C309.776093,134.773438 309.436981,138.220032 310.847748,140.651245 
	C318.666687,154.126190 330.231567,163.796936 343.960693,170.766235 
	C346.253723,171.930252 349.802216,170.621170 354.015442,170.385117 
	C357.699829,174.237427 357.569702,177.581909 351.965088,178.855560 
z"/>
<path fill="#F7F7F9" opacity="1.000000" stroke="none" 
	d="
M150.104324,330.352905 
	C160.679153,319.057953 171.015854,308.043884 181.476318,296.897919 
	C183.751099,298.976196 185.902344,300.941620 188.053574,302.907043 
	C187.609711,302.548309 187.165848,302.189545 186.721985,301.830811 
	C178.776413,310.497833 170.859390,319.191345 162.867004,327.814972 
	C160.611053,330.249115 158.284409,332.668793 155.690720,334.715607 
	C154.533508,335.628845 152.314682,336.346313 151.144943,335.840546 
	C149.088806,334.951569 147.805969,332.977936 150.104324,330.352905 
z"/>
<path fill="#EEEDF2" opacity="1.000000" stroke="none" 
	d="
M234.798981,260.795288 
	C223.473679,271.615784 212.442383,282.230621 201.261383,292.685394 
	C200.246063,293.634735 198.268524,293.555054 196.737823,293.953247 
	C196.557404,293.417480 196.376984,292.881744 196.196548,292.345978 
	C213.352020,275.891235 230.486313,259.414185 247.731293,243.053772 
	C248.515686,242.309616 250.298294,242.617630 251.672272,242.427795 
	C245.763809,248.869019 240.408112,254.707626 234.798981,260.795288 
z"/>
<path fill="#F6F6F9" opacity="1.000000" stroke="none" 
	d="
M195.044373,302.948151 
	C191.020721,300.162628 187.145554,297.670990 183.783585,294.614807 
	C180.673920,291.788025 179.720764,288.494415 184.433121,286.127625 
	C189.406067,290.674500 194.446503,295.283112 199.854355,300.227631 
	C198.574921,301.025726 196.995819,302.010742 195.044373,302.948151 
z"/>
<path fill="#EEEDF2" opacity="1.000000" stroke="none" 
	d="
M345.619232,332.601288 
	C347.915161,330.322662 349.910126,328.227203 352.196930,325.825195 
	C355.068665,326.183197 355.869659,328.513763 354.012329,330.846313 
	C351.990936,333.384827 349.126862,335.331390 346.369598,337.138458 
	C345.816071,337.501221 344.092163,336.078308 342.907867,335.478760 
	C343.711334,334.580658 344.514771,333.682587 345.619232,332.601288 
z"/>
<path fill="#F3F3F6" opacity="1.000000" stroke="none" 
	d="
M341.279022,327.123627 
	C343.420105,325.595825 345.244446,324.219635 347.733917,322.341736 
	C347.499237,324.032471 347.862854,326.354706 346.896790,327.263550 
	C345.275299,328.788971 342.807373,329.414673 340.695587,330.418945 
	C340.784515,329.371033 340.873413,328.323120 341.279022,327.123627 
z"/>
<path fill="#273168" opacity="1.000000" stroke="none" 
	d="
M257.990906,239.007828 
	C237.577606,220.138718 217.667282,201.232758 197.116516,183.050690 
	C186.388397,173.559128 174.196060,165.951202 160.026764,162.222198 
	C159.280426,162.025787 158.604523,161.561691 157.886948,161.217957 
	C160.989456,155.219940 169.182663,151.822906 175.052338,153.766739 
	C187.686203,157.950653 197.119675,166.766434 205.877197,176.069290 
	C237.352386,209.504395 268.489014,243.258377 299.719391,276.923584 
	C305.376862,283.022125 310.888855,289.256165 316.429626,295.461945 
	C317.436279,296.589386 318.256378,297.883362 319.162598,299.100464 
	C318.679932,299.507233 318.197235,299.914001 317.714569,300.320770 
	C297.885742,279.970947 278.056946,259.621155 257.990906,239.007828 
z"/>
<path fill="#3E4475" opacity="1.000000" stroke="none" 
	d="
M332.542786,313.373444 
	C333.410339,314.517639 334.277924,315.661835 335.145477,316.806030 
	C334.968933,316.959198 334.792389,317.112335 334.615845,317.265503 
	C333.737396,316.429779 332.858948,315.594086 332.081635,314.275635 
	C332.302765,313.653076 332.422760,313.513245 332.542786,313.373444 
z"/>
<path fill="#273168" opacity="1.000000" stroke="none" 
	d="
M324.342651,306.729431 
	C324.434875,306.081909 324.868561,305.856232 325.302246,305.630585 
	C325.490967,306.145966 325.679718,306.661377 325.868439,307.176758 
	C325.473663,307.168274 325.078857,307.159790 324.342651,306.729431 
z"/>
<path fill="#273168" opacity="1.000000" stroke="none" 
	d="
M328.915131,311.284149 
	C328.407837,310.566498 327.900574,309.848816 327.393311,309.131134 
	C327.802094,309.115173 328.210907,309.099243 328.799988,309.829742 
	C328.958588,310.812134 328.936859,311.048126 328.915131,311.284149 
z"/>
<path fill="#3E4475" opacity="1.000000" stroke="none" 
	d="
M328.964752,311.511566 
	C328.936859,311.048126 328.958588,310.812134 329.020996,310.223022 
	C329.531158,310.244324 330.000580,310.618835 330.375275,311.413422 
	C330.116791,311.958923 329.953094,312.084320 329.789398,312.209686 
	C329.457458,312.174011 329.199097,312.017090 328.964752,311.511566 
z"/>
<path fill="#3E4475" opacity="1.000000" stroke="none" 
	d="
M330.542542,311.669128 
	C331.022827,311.690216 331.225983,311.890961 331.313477,312.465088 
	C331.076599,312.947266 330.940369,313.071350 330.804108,313.195404 
	C330.522888,313.025787 330.241699,312.856171 329.874939,312.448120 
	C329.953094,312.084320 330.116791,311.958923 330.542542,311.669128 
z"/>
<path fill="#3E4475" opacity="1.000000" stroke="none" 
	d="
M331.426331,312.647614 
	C331.882904,312.626373 332.099121,312.812012 332.415619,313.201233 
	C332.422760,313.513245 332.302765,313.653076 331.993530,313.994263 
	C331.522736,314.023773 331.241211,313.851929 330.881897,313.437744 
	C330.940369,313.071350 331.076599,312.947266 331.426331,312.647614 
z"/>
<path fill="#283168" opacity="1.000000" stroke="none" 
	d="
M334.828125,144.065689 
	C331.449860,139.244263 327.328217,134.769974 324.875061,129.516571 
	C321.554810,122.406357 324.359467,116.103256 330.711548,112.215141 
	C332.381439,119.580597 334.092163,127.125961 335.855743,134.904633 
	C338.731079,133.628693 339.971802,131.075699 338.615173,128.020996 
	C332.488617,114.225777 340.309723,105.063332 348.319397,95.896805 
	C348.935608,95.865738 349.551849,95.834663 350.168091,95.803589 
	C351.763885,104.739037 354.003723,113.630592 354.617279,122.632980 
	C354.841583,125.924934 351.812164,130.068161 349.187134,132.776260 
	C345.312836,136.773163 340.473175,139.834259 335.732941,143.659454 
	C335.223541,144.038574 335.025848,144.052139 334.828125,144.065689 
z"/>
<path fill="#293369" opacity="1.000000" stroke="none" 
	d="
M334.945190,144.387405 
	C335.025848,144.052139 335.223541,144.038574 335.718140,144.009888 
	C350.742828,141.092697 359.076630,131.868835 361.930511,116.830124 
	C369.104980,134.160431 364.037628,144.578232 351.641266,146.412262 
	C355.792206,149.364227 355.820801,149.355606 369.784576,140.939743 
	C369.894562,146.450546 366.561096,150.698029 360.606384,152.796783 
	C352.963135,155.490692 346.242737,153.420181 340.018005,148.868362 
	C338.281067,147.598221 336.709625,146.101761 334.945190,144.387405 
z"/>
<path fill="#283268" opacity="1.000000" stroke="none" 
	d="
M165.677551,115.781113 
	C171.669724,111.979248 177.386414,108.380562 183.234894,105.010590 
	C184.334915,104.376740 185.960632,104.655251 187.343765,104.512756 
	C187.255234,106.047455 187.748322,108.010979 186.984116,109.047501 
	C181.887436,115.960381 176.539932,122.689171 171.233780,129.446259 
	C169.613876,131.509079 167.867950,133.472931 165.388443,135.122086 
	C167.744522,128.533478 160.796066,122.307411 165.677551,115.781113 
z"/>
</svg>